<svg version="1.1" id="Layer_1" xmlns="http://www.w3.org/2000/svg" xmlns:xlink="http://www.w3.org/1999/xlink" x="0px" y="0px"
	 width="100%" viewBox="0 0 1080 1080" enable-background="new 0 0 1080 1080" xml:space="preserve">
<path fill="#FFFFFF" opacity="1.000000" stroke="none" 
	d="
M979.000000,1081.000000 
	C652.666687,1081.000000 326.833344,1081.000000 1.000000,1081.000000 
	C1.000000,721.000000 1.000000,361.000000 1.000000,1.000000 
	C361.000000,1.000000 721.000000,1.000000 1081.000000,1.000000 
	C1081.000000,361.000000 1081.000000,721.000000 1081.000000,1081.000000 
	C1047.166626,1081.000000 1013.333313,1081.000000 979.000000,1081.000000 
M735.041382,523.585693 
	C739.135254,508.206909 743.054138,492.778107 747.426270,477.478851 
	C748.794983,472.689209 746.730408,471.423462 742.839111,471.054962 
	C740.032593,470.789185 737.159912,471.035675 734.391357,470.589996 
	C725.231689,469.115448 716.329407,470.267029 707.310974,472.463104 
	C708.233337,475.619934 709.264648,478.415222 709.844482,481.301178 
	C710.786865,485.991486 708.239563,490.685150 704.138550,492.397949 
	C700.526245,493.906738 696.871643,493.144165 695.562134,489.774506 
	C693.720886,485.036743 692.464050,480.387085 688.378418,476.727509 
	C687.225098,475.694397 688.502502,471.723969 688.993225,469.163605 
	C689.285095,467.640411 690.216431,466.239746 690.860291,464.783997 
	C690.590271,464.418762 690.320251,464.053528 690.050293,463.688293 
	C688.220093,464.453827 685.865295,464.743835 684.658752,466.074738 
	C681.134216,469.962646 676.890320,473.802063 675.042236,478.493225 
	C669.465698,492.648804 664.094055,506.982513 660.112244,521.645874 
	C654.256653,543.209045 649.715210,565.127808 644.465576,586.859253 
	C644.029358,588.665161 642.465515,590.198608 641.425537,591.858643 
	C640.277588,590.380981 638.648376,589.074341 638.053101,587.400208 
	C627.311951,557.194824 616.707764,526.940796 606.040710,496.709045 
	C604.223267,491.558441 602.251160,486.462433 600.366821,481.385223 
	C593.179382,511.204437 586.270813,540.662964 578.905823,570.006958 
	C576.186340,580.841858 572.282349,591.390930 563.409912,599.034973 
	C558.343079,603.400269 552.482788,605.238708 545.843079,603.075684 
	C540.539368,601.347839 539.952637,596.891418 539.728943,592.247864 
	C539.715881,591.976990 539.377991,591.721741 538.866333,591.002441 
	C527.717224,591.002441 516.247986,591.096436 504.781403,590.965210 
	C498.485474,590.893127 492.191162,590.162903 485.900909,590.223755 
	C475.615234,590.323303 465.328247,590.728333 455.056519,591.279480 
	C453.723785,591.351013 451.596252,592.912781 451.414917,594.038513 
	C451.185120,595.465271 452.148956,597.844055 453.350555,598.574646 
	C455.485870,599.873047 458.182129,600.877747 460.652618,600.897583 
	C482.150330,601.070679 503.650055,600.980896 525.149109,601.010437 
	C529.944031,601.017029 534.278748,601.878662 537.270203,606.390686 
	C543.145386,615.252075 554.522400,616.559509 562.777893,609.736877 
	C573.300598,601.040527 579.773132,589.893982 582.999329,576.790466 
	C588.066406,556.210510 592.944824,535.583862 598.085266,515.022583 
	C598.537170,513.215271 600.334534,511.744354 601.506958,510.117249 
	C602.672424,511.578339 604.318665,512.863464 604.927734,514.528137 
	C610.121216,528.720947 615.116455,542.986206 620.190979,557.222656 
	C624.429138,569.112976 628.611145,581.024414 632.994080,592.861389 
	C634.447388,596.786377 637.327454,600.785400 641.621155,599.626160 
	C644.581116,598.826965 647.811646,595.107544 648.872864,591.994873 
	C651.261719,584.987915 652.556396,577.581848 653.979309,570.276428 
	C659.282532,543.048401 666.065308,516.238770 676.405945,490.440063 
	C677.513062,487.678101 679.613770,485.314392 682.156860,481.362030 
	C685.677124,487.199219 688.530334,491.569916 691.019714,496.138824 
	C695.218750,503.845398 703.828247,505.503052 709.356689,498.817627 
	C711.881958,495.763763 713.121216,491.250732 713.845703,487.202942 
	C714.764526,482.069489 716.227722,480.052643 721.349670,480.003632 
	C724.682556,479.971741 728.016052,479.994049 731.349243,479.998230 
	C740.185486,480.009369 742.571899,482.887360 740.345703,491.328979 
	C733.751465,516.334045 727.034668,541.306824 720.409607,566.303833 
	C719.528320,569.628906 718.901062,573.021240 718.156128,576.382446 
	C718.824219,576.550659 719.492249,576.718872 720.160339,576.887085 
	C726.380188,559.788086 729.729004,541.810059 735.041382,523.585693 
M809.797913,511.216095 
	C812.378174,501.439972 815.008972,491.676819 817.519531,481.882843 
	C819.024658,476.011169 817.524597,472.911560 812.106018,471.684937 
	C809.680115,471.135834 806.749268,471.285645 804.413208,472.129883 
	C792.929138,476.280029 781.057312,475.220795 769.336792,474.649567 
	C765.652710,474.469971 764.126282,474.822388 763.384644,478.223572 
	C763.102905,479.515564 762.502502,480.734833 762.160522,482.017426 
	C754.218262,511.804626 746.229126,541.579712 738.447937,571.408997 
	C737.558838,574.817261 737.625427,578.541077 737.746460,582.101624 
	C737.778015,583.031006 739.682983,583.896790 740.727600,584.791748 
	C741.450500,583.757568 742.511230,582.814453 742.820251,581.668640 
	C743.330994,579.774475 743.120972,577.687195 743.622620,575.789185 
	C751.076538,547.585876 758.561462,519.390625 766.143555,491.221649 
	C767.229126,487.188538 769.727661,485.043488 774.441711,484.866058 
	C783.188599,484.536835 791.980408,483.887054 800.615112,482.505341 
	C809.805542,481.034668 813.996277,484.619141 811.673157,493.400909 
	C804.423950,520.803284 797.022034,548.165222 789.710693,575.551208 
	C789.382080,576.782043 789.359253,578.094543 789.194031,579.369019 
	C789.879150,579.503540 790.564209,579.638062 791.249329,579.772583 
	C797.333679,557.176575 803.418030,534.580566 809.797913,511.216095 
M215.500000,600.997559 
	C229.116760,601.282654 242.740402,601.924438 256.346588,601.661621 
	C261.186920,601.568176 267.422882,601.270386 269.264709,595.172302 
	C271.931732,586.342102 273.892548,577.290161 275.867889,568.270020 
	C276.121307,567.112854 274.657654,565.579590 273.989441,564.220581 
	C272.929901,565.227966 271.244080,566.063538 270.912933,567.270752 
	C268.820801,574.897583 267.028931,582.606873 265.019531,590.770081 
	C263.794464,590.832397 262.172668,590.984253 260.550659,590.986572 
	C246.394455,591.007019 232.238174,591.001221 218.081924,591.002197 
	C206.009201,591.002991 193.931442,590.824341 181.868301,591.164551 
	C179.661133,591.226807 177.513443,593.398315 175.338287,594.596191 
	C177.102570,596.504395 178.626022,598.765503 180.718262,600.193054 
	C182.049149,601.101135 184.223083,600.954590 186.021149,600.966980 
	C195.513718,601.032104 205.006973,600.997559 215.500000,600.997559 
M911.464233,498.906036 
	C912.461487,496.630310 913.160583,494.149933 914.541809,492.137787 
	C915.865295,490.209808 918.036682,487.317627 919.583069,487.466766 
	C921.680054,487.668976 923.712646,490.201721 925.426575,492.054962 
	C926.372986,493.078278 926.806091,494.710785 927.138306,496.145630 
	C929.148132,504.827881 931.313171,513.486450 932.914246,522.246521 
	C933.879639,527.528259 935.054138,533.179565 934.148560,538.314575 
	C931.940796,550.833557 928.554077,563.143494 925.704834,575.551941 
	C925.339050,577.145081 925.345520,578.823669 925.179565,580.462708 
	C925.679321,580.585938 926.179138,580.709167 926.678894,580.832397 
	C927.410522,579.169556 928.387512,577.569946 928.834839,575.833862 
	C932.384644,562.057739 935.865173,548.263550 939.277405,534.452759 
	C939.745850,532.556641 940.127441,530.479675 939.853333,528.587280 
	C938.694397,520.587708 937.730652,512.514526 935.820251,504.681702 
	C933.830078,496.521667 931.072144,488.519745 928.179565,480.620972 
	C926.677979,476.520599 922.876831,473.883881 918.669128,475.261383 
	C915.892822,476.170319 913.410706,479.214172 911.726685,481.887848 
	C909.911621,484.769470 909.473083,488.485138 907.886475,491.553864 
	C906.580444,494.079742 904.473938,496.191711 902.722229,498.487152 
	C902.001892,498.447998 901.281494,498.408813 900.561157,498.369659 
	C901.678101,499.850708 902.995789,502.685059 903.873779,502.554810 
	C906.345154,502.188232 908.635681,500.602142 911.464233,498.906036 
M736.159241,590.047119 
	C725.731812,590.367126 715.295837,590.543091 704.885559,591.154480 
	C703.228210,591.251831 700.717896,593.072632 700.370178,594.521057 
	C700.041382,595.890503 701.684998,598.287170 703.114197,599.370056 
	C704.557312,600.463501 706.797852,600.905945 708.697693,600.929260 
	C719.830994,601.066162 730.967346,601.049133 742.101440,600.947632 
	C744.044434,600.929932 746.328979,600.776917 747.828918,599.760925 
	C749.512329,598.620728 750.484253,596.429932 751.765686,594.696228 
	C749.990295,593.468567 748.366760,591.666016 746.403992,591.147339 
	C743.420654,590.358948 740.202026,590.461060 736.159241,590.047119 
M892.853638,502.950653 
	C893.314697,492.830414 892.958191,491.326111 889.001648,488.385132 
	C888.853882,515.404968 868.893555,523.549133 847.843933,530.799072 
	C852.253845,532.466187 855.718384,533.985535 859.317017,535.052856 
	C861.280273,535.635071 863.987061,536.339722 865.477722,535.473450 
	C878.160706,528.103027 889.737793,519.617371 892.853638,502.950653 
M929.513428,600.997559 
	C935.487427,600.997253 941.475891,601.236389 947.427979,600.874939 
	C949.708557,600.736450 952.132935,599.551758 954.051208,598.212646 
	C955.108459,597.474548 956.051575,595.081787 955.608398,594.056213 
	C955.031372,592.720703 953.147949,591.515320 951.608521,591.133667 
	C949.405701,590.587524 947.004517,590.741760 944.689697,590.764160 
	C934.814514,590.859802 924.936218,590.914185 915.069641,591.273926 
	C913.749146,591.322021 911.616577,592.876282 911.421448,594.003418 
	C911.176514,595.417969 912.140015,597.602844 913.312500,598.562988 
	C914.857300,599.827759 917.060669,600.652222 919.074219,600.896240 
	C922.181580,601.272827 925.368042,600.996826 929.513428,600.997559 
M803.460205,600.997559 
	C807.711914,600.590698 812.083923,600.632507 816.152527,599.542297 
	C817.650269,599.140991 819.146729,596.103882 819.244812,594.197083 
	C819.295410,593.214233 816.298706,591.187744 814.641968,591.147156 
	C803.450378,590.873352 792.243896,590.836487 781.054932,591.160095 
	C779.038513,591.218384 777.080627,593.299500 775.095642,594.446655 
	C776.476318,596.330078 777.594543,598.526978 779.333191,599.982788 
	C780.424316,600.896484 782.443542,600.929199 784.052979,600.955994 
	C790.190979,601.058167 796.331726,600.997437 803.460205,600.997559 
z"/>
<path fill="#F6F6F6" opacity="1.000000" stroke="none" 
	d="
M734.997070,523.995850 
	C729.729004,541.810059 726.380188,559.788086 720.160339,576.887085 
	C719.492249,576.718872 718.824219,576.550659 718.156128,576.382446 
	C718.901062,573.021240 719.528320,569.628906 720.409607,566.303833 
	C727.034668,541.306824 733.751465,516.334045 740.345703,491.328979 
	C742.571899,482.887360 740.185486,480.009369 731.349243,479.998230 
	C728.016052,479.994049 724.682556,479.971741 721.349670,480.003632 
	C716.227722,480.052643 714.764526,482.069489 713.845703,487.202942 
	C713.121216,491.250732 711.881958,495.763763 709.356689,498.817627 
	C703.828247,505.503052 695.218750,503.845398 691.019714,496.138824 
	C688.530334,491.569916 685.677124,487.199219 682.156860,481.362030 
	C679.613770,485.314392 677.513062,487.678101 676.405945,490.440063 
	C666.065308,516.238770 659.282532,543.048401 653.979309,570.276428 
	C652.556396,577.581848 651.261719,584.987915 648.872864,591.994873 
	C647.811646,595.107544 644.581116,598.826965 641.621155,599.626160 
	C637.327454,600.785400 634.447388,596.786377 632.994080,592.861389 
	C628.611145,581.024414 624.429138,569.112976 620.190979,557.222656 
	C615.116455,542.986206 610.121216,528.720947 604.927734,514.528137 
	C604.318665,512.863464 602.672424,511.578339 601.506958,510.117249 
	C600.334534,511.744354 598.537170,513.215271 598.085266,515.022583 
	C592.944824,535.583862 588.066406,556.210510 582.999329,576.790466 
	C579.773132,589.893982 573.300598,601.040527 562.777893,609.736877 
	C554.522400,616.559509 543.145386,615.252075 537.270203,606.390686 
	C534.278748,601.878662 529.944031,601.017029 525.149109,601.010437 
	C503.650055,600.980896 482.150330,601.070679 460.652618,600.897583 
	C458.182129,600.877747 455.485870,599.873047 453.350555,598.574646 
	C452.148956,597.844055 451.185120,595.465271 451.414917,594.038513 
	C451.596252,592.912781 453.723785,591.351013 455.056519,591.279480 
	C465.328247,590.728333 475.615234,590.323303 485.900909,590.223755 
	C492.191162,590.162903 498.485474,590.893127 504.781403,590.965210 
	C516.247986,591.096436 527.717224,591.002441 538.866333,591.002441 
	C539.377991,591.721741 539.715881,591.976990 539.728943,592.247864 
	C539.952637,596.891418 540.539368,601.347839 545.843079,603.075684 
	C552.482788,605.238708 558.343079,603.400269 563.409912,599.034973 
	C572.282349,591.390930 576.186340,580.841858 578.905823,570.006958 
	C586.270813,540.662964 593.179382,511.204437 600.366821,481.385223 
	C602.251160,486.462433 604.223267,491.558441 606.040710,496.709045 
	C616.707764,526.940796 627.311951,557.194824 638.053101,587.400208 
	C638.648376,589.074341 640.277588,590.380981 641.425537,591.858643 
	C642.465515,590.198608 644.029358,588.665161 644.465576,586.859253 
	C649.715210,565.127808 654.256653,543.209045 660.112244,521.645874 
	C664.094055,506.982513 669.465698,492.648804 675.042236,478.493225 
	C676.890320,473.802063 681.134216,469.962646 684.658752,466.074738 
	C685.865295,464.743835 688.220093,464.453827 690.050293,463.688293 
	C690.320251,464.053528 690.590271,464.418762 690.860291,464.783997 
	C690.216431,466.239746 689.285095,467.640411 688.993225,469.163605 
	C688.502502,471.723969 687.225098,475.694397 688.378418,476.727509 
	C692.464050,480.387085 693.720886,485.036743 695.562134,489.774506 
	C696.871643,493.144165 700.526245,493.906738 704.138550,492.397949 
	C708.239563,490.685150 710.786865,485.991486 709.844482,481.301178 
	C709.264648,478.415222 708.233337,475.619934 707.310974,472.463104 
	C716.329407,470.267029 725.231689,469.115448 734.391357,470.589996 
	C737.159912,471.035675 740.032593,470.789185 742.839111,471.054962 
	C746.730408,471.423462 748.794983,472.689209 747.426270,477.478851 
	C743.054138,492.778107 739.135254,508.206909 734.997070,523.995850 
z"/>
<path fill="#F6F6F6" opacity="1.000000" stroke="none" 
	d="
M809.650146,511.600342 
	C803.418030,534.580566 797.333679,557.176575 791.249329,579.772583 
	C790.564209,579.638062 789.879150,579.503540 789.194031,579.369019 
	C789.359253,578.094543 789.382080,576.782043 789.710693,575.551208 
	C797.022034,548.165222 804.423950,520.803284 811.673157,493.400909 
	C813.996277,484.619141 809.805542,481.034668 800.615112,482.505341 
	C791.980408,483.887054 783.188599,484.536835 774.441711,484.866058 
	C769.727661,485.043488 767.229126,487.188538 766.143555,491.221649 
	C758.561462,519.390625 751.076538,547.585876 743.622620,575.789185 
	C743.120972,577.687195 743.330994,579.774475 742.820251,581.668640 
	C742.511230,582.814453 741.450500,583.757568 740.727539,584.791748 
	C739.682983,583.896790 737.778015,583.031006 737.746460,582.101624 
	C737.625427,578.541077 737.558838,574.817261 738.447937,571.408997 
	C746.229126,541.579712 754.218262,511.804626 762.160522,482.017426 
	C762.502502,480.734833 763.102905,479.515564 763.384644,478.223572 
	C764.126282,474.822388 765.652710,474.469971 769.336792,474.649567 
	C781.057312,475.220795 792.929138,476.280029 804.413208,472.129883 
	C806.749268,471.285645 809.680115,471.135834 812.106018,471.684937 
	C817.524597,472.911560 819.024658,476.011169 817.519531,481.882843 
	C815.008972,491.676819 812.378174,501.439972 809.650146,511.600342 
z"/>
<path fill="#F6F6F6" opacity="1.000000" stroke="none" 
	d="
M215.000000,600.997559 
	C205.006973,600.997559 195.513718,601.032104 186.021149,600.966980 
	C184.223083,600.954590 182.049149,601.101135 180.718262,600.193054 
	C178.626022,598.765503 177.102570,596.504395 175.338287,594.596191 
	C177.513443,593.398315 179.661133,591.226807 181.868301,591.164551 
	C193.931442,590.824341 206.009201,591.002991 218.081924,591.002197 
	C232.238174,591.001221 246.394455,591.007019 260.550659,590.986572 
	C262.172668,590.984253 263.794464,590.832397 265.019531,590.770081 
	C267.028931,582.606873 268.820801,574.897583 270.912933,567.270752 
	C271.244080,566.063538 272.929901,565.227966 273.989441,564.220581 
	C274.657654,565.579590 276.121307,567.112854 275.867889,568.270020 
	C273.892548,577.290161 271.931732,586.342102 269.264709,595.172302 
	C267.422882,601.270386 261.186920,601.568176 256.346588,601.661621 
	C242.740402,601.924438 229.116760,601.282654 215.000000,600.997559 
z"/>
<path fill="#F6F6F6" opacity="1.000000" stroke="none" 
	d="
M911.230835,499.201416 
	C908.635681,500.602142 906.345154,502.188232 903.873779,502.554810 
	C902.995789,502.685059 901.678101,499.850708 900.561157,498.369659 
	C901.281494,498.408813 902.001892,498.447998 902.722229,498.487152 
	C904.473938,496.191711 906.580444,494.079742 907.886475,491.553864 
	C909.473083,488.485138 909.911621,484.769470 911.726685,481.887848 
	C913.410706,479.214172 915.892822,476.170319 918.669128,475.261383 
	C922.876831,473.883881 926.677979,476.520599 928.179565,480.620972 
	C931.072144,488.519745 933.830078,496.521667 935.820251,504.681702 
	C937.730652,512.514526 938.694397,520.587708 939.853333,528.587280 
	C940.127441,530.479675 939.745850,532.556641 939.277405,534.452759 
	C935.865173,548.263550 932.384644,562.057739 928.834839,575.833862 
	C928.387512,577.569946 927.410522,579.169556 926.678894,580.832397 
	C926.179138,580.709167 925.679321,580.585938 925.179565,580.462708 
	C925.345520,578.823669 925.339050,577.145081 925.704834,575.551941 
	C928.554077,563.143494 931.940796,550.833557 934.148560,538.314575 
	C935.054138,533.179565 933.879639,527.528259 932.914246,522.246521 
	C931.313171,513.486450 929.148132,504.827881 927.138306,496.145630 
	C926.806091,494.710785 926.372986,493.078278 925.426575,492.054962 
	C923.712646,490.201721 921.680054,487.668976 919.583069,487.466766 
	C918.036682,487.317627 915.865295,490.209808 914.541809,492.137787 
	C913.160583,494.149933 912.461487,496.630310 911.230835,499.201416 
z"/>
<path fill="#F6F6F6" opacity="1.000000" stroke="none" 
	d="
M736.621277,590.116028 
	C740.202026,590.461060 743.420654,590.358948 746.403992,591.147339 
	C748.366760,591.666016 749.990295,593.468567 751.765686,594.696228 
	C750.484253,596.429932 749.512329,598.620728 747.828918,599.760925 
	C746.328979,600.776917 744.044434,600.929932 742.101440,600.947632 
	C730.967346,601.049133 719.830994,601.066162 708.697693,600.929260 
	C706.797852,600.905945 704.557312,600.463501 703.114197,599.370056 
	C701.684998,598.287170 700.041382,595.890503 700.370178,594.521057 
	C700.717896,593.072632 703.228210,591.251831 704.885559,591.154480 
	C715.295837,590.543091 725.731812,590.367126 736.621277,590.116028 
z"/>
<path fill="#F6F6F6" opacity="1.000000" stroke="none" 
	d="
M892.716492,503.361206 
	C889.737793,519.617371 878.160706,528.103027 865.477722,535.473450 
	C863.987061,536.339722 861.280273,535.635071 859.317017,535.052856 
	C855.718384,533.985535 852.253845,532.466187 847.843933,530.799072 
	C868.893555,523.549133 888.853882,515.404968 889.001648,488.385132 
	C892.958191,491.326111 893.314697,492.830414 892.716492,503.361206 
z"/>
<path fill="#F6F6F6" opacity="1.000000" stroke="none" 
	d="
M929.017212,600.997559 
	C925.368042,600.996826 922.181580,601.272827 919.074219,600.896240 
	C917.060669,600.652222 914.857300,599.827759 913.312500,598.562988 
	C912.140015,597.602844 911.176514,595.417969 911.421448,594.003418 
	C911.616577,592.876282 913.749146,591.322021 915.069641,591.273926 
	C924.936218,590.914185 934.814514,590.859802 944.689697,590.764160 
	C947.004517,590.741760 949.405701,590.587524 951.608521,591.133667 
	C953.147949,591.515320 955.031372,592.720703 955.608398,594.056213 
	C956.051575,595.081787 955.108459,597.474548 954.051208,598.212646 
	C952.132935,599.551758 949.708557,600.736450 947.427979,600.874939 
	C941.475891,601.236389 935.487427,600.997253 929.017212,600.997559 
z"/>
<path fill="#F6F6F6" opacity="1.000000" stroke="none" 
	d="
M802.965820,600.997559 
	C796.331726,600.997437 790.190979,601.058167 784.052979,600.955994 
	C782.443542,600.929199 780.424316,600.896484 779.333191,599.982788 
	C777.594543,598.526978 776.476318,596.330078 775.095642,594.446655 
	C777.080627,593.299500 779.038513,591.218384 781.054932,591.160095 
	C792.243896,590.836487 803.450378,590.873352 814.641968,591.147156 
	C816.298706,591.187744 819.295410,593.214233 819.244812,594.197083 
	C819.146729,596.103882 817.650269,599.140991 816.152527,599.542297 
	C812.083923,600.632507 807.711914,600.590698 802.965820,600.997559 
z"/>
</svg>